<?xml version="1.0" standalone="no"?>
<!DOCTYPE svg PUBLIC "-//W3C//DTD SVG 20010904//EN"
 "http://www.w3.org/TR/2001/REC-SVG-20010904/DTD/svg10.dtd">
<svg version="1.0" xmlns="http://www.w3.org/2000/svg"
 width="938.000000pt" height="256.000000pt" viewBox="0 0 938.000000 256.000000"
 preserveAspectRatio="xMidYMid meet">
<metadata>
Created by potrace 1.13, written by Peter Selinger 2001-2015
</metadata>
<g transform="translate(0.000000,256.000000) scale(0.100000,-0.100000)"
fill="#000000" stroke="none">
<path d="M0 1280 l0 -1280 4690 0 4690 0 0 1280 0 1280 -4690 0 -4690 0 0
-1280z m402 970 c20 -6 46 -22 58 -37 19 -24 20 -39 20 -244 l0 -219 188 0
188 0 25 -27 c14 -16 26 -42 28 -59 3 -46 -23 -102 -54 -114 -15 -6 -107 -10
-206 -10 l-179 0 0 -206 c0 -231 8 -280 54 -329 82 -87 238 -60 302 53 46 80
72 102 120 102 31 0 51 -7 72 -25 40 -34 47 -72 27 -141 -22 -77 -132 -189
-231 -236 -64 -30 -76 -33 -164 -32 -108 1 -158 16 -238 71 -63 43 -116 112
-145 190 -20 54 -22 76 -22 304 l0 246 -48 2 c-96 4 -117 25 -117 115 0 78 19
96 104 96 l65 0 1 222 c1 246 4 260 63 277 43 12 46 12 89 1z m1885 -34 l23
-27 0 -547 c0 -326 4 -561 10 -581 13 -45 45 -79 96 -101 38 -17 73 -53 86
-91 10 -26 -28 -97 -64 -119 -18 -11 -49 -20 -68 -20 -84 0 -217 97 -265 193
l-25 51 0 609 c0 411 3 615 11 628 15 29 47 39 113 36 50 -3 63 -8 83 -31z
m2315 -411 c78 -28 153 -92 167 -142 13 -48 -7 -96 -49 -118 -39 -20 -65 -15
-114 24 -20 16 -61 38 -89 47 -61 21 -187 25 -209 7 -8 -7 -17 -11 -19 -8 -13
12 -60 -43 -66 -77 -15 -94 51 -141 213 -153 171 -13 271 -46 337 -111 75 -76
100 -174 72 -284 -21 -84 -53 -138 -111 -189 -101 -88 -280 -117 -479 -75
-101 21 -235 117 -276 196 -45 89 -1 178 89 178 27 0 46 -12 103 -66 98 -92
158 -118 274 -119 71 0 97 4 118 18 39 25 67 75 67 120 0 70 -59 108 -185 121
-89 9 -232 44 -282 70 -98 49 -153 143 -153 261 0 132 89 246 238 304 73 29
270 26 354 -4z m-1259 1 c198 -38 306 -153 347 -365 24 -128 15 -194 -32 -234
l-33 -28 -347 1 -347 0 14 -46 c39 -131 148 -200 315 -198 84 0 141 26 208 93
56 56 88 64 142 36 66 -34 77 -94 31 -166 -76 -121 -224 -189 -412 -189 -147
0 -276 51 -378 149 -205 197 -201 598 7 810 129 131 285 175 485 137z m5612
-1 c127 -27 230 -94 282 -182 59 -102 93 -316 59 -381 -33 -63 -26 -62 -408
-62 l-348 0 6 -27 c24 -106 108 -188 214 -208 146 -27 208 -12 304 75 72 65
101 73 156 45 88 -46 77 -129 -32 -232 -94 -89 -191 -123 -349 -123 -97 0
-165 15 -249 57 -144 70 -244 202 -271 357 -18 107 -7 266 25 349 100 263 334
390 611 332z m-3681 -26 c23 -18 26 -28 26 -77 l0 -56 36 42 c22 26 63 55 109
78 l73 36 114 -4 c102 -3 119 -7 179 -36 80 -38 171 -130 212 -214 48 -100 60
-167 54 -313 -5 -128 -7 -140 -21 -180 -93 -246 -281 -366 -526 -335 -72 9
-106 21 -167 62 -23 15 -44 28 -47 28 -3 0 -6 -106 -6 -236 l0 -236 -29 -29
c-26 -26 -37 -29 -89 -29 -45 0 -66 5 -86 21 l-26 20 0 717 c0 394 4 722 8
728 26 39 142 48 186 13z m2520 11 c224 -36 377 -239 242 -321 -55 -34 -90
-24 -164 43 -134 122 -328 85 -409 -80 -26 -52 -28 -66 -28 -172 0 -96 4 -123
21 -160 46 -98 141 -154 259 -153 95 1 141 22 199 88 43 50 51 55 88 55 32 0
47 -7 75 -35 46 -46 44 -90 -10 -162 -81 -109 -204 -166 -357 -166 -240 0
-393 100 -472 306 -28 73 -30 89 -31 207 -1 366 253 605 587 550z"/>
<path d="M3165 1612 c-121 -22 -192 -88 -218 -202 l-6 -25 268 3 269 3 -10 42
c-20 91 -79 155 -156 172 -40 8 -120 12 -147 7z"/>
<path d="M8737 1604 c-79 -20 -121 -55 -157 -128 -18 -35 -29 -69 -25 -75 4
-7 92 -11 266 -11 l259 0 0 23 c0 31 -43 118 -71 144 -56 51 -178 72 -272 47z"/>
<path d="M5479 1561 c-67 -18 -142 -88 -158 -147 -6 -22 -11 -102 -11 -180 l0
-140 35 -42 c21 -24 63 -54 102 -74 57 -28 76 -32 143 -32 62 -1 85 4 126 25
57 29 108 92 125 152 20 68 17 243 -4 299 -47 121 -204 182 -358 139z"/>
</g>
</svg>
